<mxfile host="app.diagrams.net" modified="2021-05-31T05:56:23.113Z" agent="5.0 (Macintosh; Intel Mac OS X 10_15_7) AppleWebKit/537.36 (KHTML, like Gecko) Chrome/90.0.4430.212 Safari/537.36" etag="1vLnZ9Bp_sBhYG3UVjPp" version="14.7.3" type="github" pages="4">
  <diagram id="k2b56e-_bvuLfYpG03Iz" name="首页">
    <mxGraphModel dx="946" dy="519" grid="1" gridSize="10" guides="1" tooltips="1" connect="1" arrows="1" fold="1" page="1" pageScale="1" pageWidth="827" pageHeight="1169" math="0" shadow="0">
      <root>
        <mxCell id="0" />
        <mxCell id="1" parent="0" />
        <mxCell id="nyLHJpOvesoisV4IKTzy-1" value="" style="rounded=0;whiteSpace=wrap;html=1;fillColor=#ffffff;strokeColor=none;" parent="1" vertex="1">
          <mxGeometry x="40" y="40" width="320" height="1200" as="geometry" />
        </mxCell>
        <mxCell id="nyLHJpOvesoisV4IKTzy-2" value="&lt;span style=&quot;font-size: 18px&quot;&gt;首页&lt;/span&gt;" style="rounded=0;whiteSpace=wrap;html=1;fillColor=#ffffff;strokeColor=none;" parent="1" vertex="1">
          <mxGeometry x="40" y="40" width="320" height="50" as="geometry" />
        </mxCell>
        <mxCell id="nyLHJpOvesoisV4IKTzy-3" value="&lt;font style=&quot;font-size: 18px&quot;&gt;&lt;b&gt;&amp;nbsp; 最新动态&lt;/b&gt;&lt;/font&gt;" style="rounded=0;whiteSpace=wrap;html=1;fillColor=#ffffff;align=left;strokeColor=none;" parent="1" vertex="1">
          <mxGeometry x="40" y="90" width="320" height="60" as="geometry" />
        </mxCell>
        <mxCell id="nyLHJpOvesoisV4IKTzy-4" value="头像&amp;nbsp; 用户名&amp;nbsp; 时间" style="rounded=0;whiteSpace=wrap;html=1;fillColor=#E6E6E6;strokeColor=none;" parent="1" vertex="1">
          <mxGeometry x="60" y="150" width="120" height="20" as="geometry" />
        </mxCell>
        <mxCell id="nyLHJpOvesoisV4IKTzy-5" value="&amp;nbsp; &amp;nbsp;借了/看完/收到&amp;nbsp; &amp;nbsp; 书名" style="rounded=0;whiteSpace=wrap;html=1;fillColor=#E6E6E6;strokeColor=none;align=left;" parent="1" vertex="1">
          <mxGeometry x="60" y="180" width="280" height="10" as="geometry" />
        </mxCell>
        <mxCell id="nyLHJpOvesoisV4IKTzy-6" value="" style="rounded=0;whiteSpace=wrap;html=1;fillColor=#E6E6E6;strokeColor=none;align=left;" parent="1" vertex="1">
          <mxGeometry x="60" y="240" width="280" height="10" as="geometry" />
        </mxCell>
        <mxCell id="nyLHJpOvesoisV4IKTzy-7" value="" style="rounded=0;whiteSpace=wrap;html=1;fillColor=#E6E6E6;strokeColor=none;" parent="1" vertex="1">
          <mxGeometry x="60" y="210" width="120" height="20" as="geometry" />
        </mxCell>
        <mxCell id="nyLHJpOvesoisV4IKTzy-8" value="&lt;font style=&quot;font-size: 18px&quot;&gt;&lt;b&gt;&amp;nbsp; 最新捐书&lt;/b&gt;&lt;/font&gt;" style="rounded=0;whiteSpace=wrap;html=1;fillColor=#ffffff;align=left;strokeColor=none;" parent="1" vertex="1">
          <mxGeometry x="40" y="340" width="320" height="60" as="geometry" />
        </mxCell>
        <mxCell id="nyLHJpOvesoisV4IKTzy-9" value="封面" style="rounded=0;whiteSpace=wrap;html=1;fillColor=#E6E6E6;strokeColor=none;" parent="1" vertex="1">
          <mxGeometry x="60" y="400" width="70" height="90" as="geometry" />
        </mxCell>
        <mxCell id="nyLHJpOvesoisV4IKTzy-10" value="" style="rounded=0;whiteSpace=wrap;html=1;fillColor=#E6E6E6;strokeColor=none;" parent="1" vertex="1">
          <mxGeometry x="150" y="400" width="70" height="90" as="geometry" />
        </mxCell>
        <mxCell id="nyLHJpOvesoisV4IKTzy-11" value="" style="rounded=0;whiteSpace=wrap;html=1;fillColor=#E6E6E6;strokeColor=none;" parent="1" vertex="1">
          <mxGeometry x="240" y="400" width="70" height="90" as="geometry" />
        </mxCell>
        <mxCell id="nyLHJpOvesoisV4IKTzy-12" value="书名" style="rounded=0;whiteSpace=wrap;html=1;fillColor=#E6E6E6;strokeColor=none;" parent="1" vertex="1">
          <mxGeometry x="60" y="500" width="70" height="10" as="geometry" />
        </mxCell>
        <mxCell id="nyLHJpOvesoisV4IKTzy-13" value="" style="rounded=0;whiteSpace=wrap;html=1;fillColor=#E6E6E6;strokeColor=none;" parent="1" vertex="1">
          <mxGeometry x="150" y="500" width="70" height="10" as="geometry" />
        </mxCell>
        <mxCell id="nyLHJpOvesoisV4IKTzy-14" value="" style="rounded=0;whiteSpace=wrap;html=1;fillColor=#E6E6E6;strokeColor=none;" parent="1" vertex="1">
          <mxGeometry x="240" y="500" width="70" height="10" as="geometry" />
        </mxCell>
        <mxCell id="nyLHJpOvesoisV4IKTzy-15" value="&lt;font style=&quot;font-size: 18px&quot;&gt;&lt;b&gt;&amp;nbsp; 最新书会&lt;/b&gt;&lt;/font&gt;" style="rounded=0;whiteSpace=wrap;html=1;fillColor=#ffffff;align=left;strokeColor=none;" parent="1" vertex="1">
          <mxGeometry x="40" y="540" width="320" height="60" as="geometry" />
        </mxCell>
        <mxCell id="nyLHJpOvesoisV4IKTzy-16" value="" style="endArrow=none;html=1;exitX=1;exitY=0;exitDx=0;exitDy=0;entryX=0;entryY=0;entryDx=0;entryDy=0;strokeColor=#B3B3B3;" parent="1" source="nyLHJpOvesoisV4IKTzy-3" target="nyLHJpOvesoisV4IKTzy-3" edge="1">
          <mxGeometry width="50" height="50" relative="1" as="geometry">
            <mxPoint x="290" y="89" as="sourcePoint" />
            <mxPoint x="40" y="89" as="targetPoint" />
          </mxGeometry>
        </mxCell>
        <mxCell id="nyLHJpOvesoisV4IKTzy-17" value="&amp;nbsp; 书会名称&amp;nbsp; &amp;nbsp; 发起人" style="rounded=0;whiteSpace=wrap;html=1;fillColor=#E6E6E6;strokeColor=none;align=left;" parent="1" vertex="1">
          <mxGeometry x="60" y="600" width="130" height="20" as="geometry" />
        </mxCell>
        <mxCell id="nyLHJpOvesoisV4IKTzy-18" value="&lt;span&gt;&amp;nbsp; 时间&amp;nbsp; &amp;nbsp; 地点&amp;nbsp; &amp;nbsp; 人数&lt;/span&gt;" style="rounded=0;whiteSpace=wrap;html=1;fillColor=#E6E6E6;strokeColor=none;align=left;" parent="1" vertex="1">
          <mxGeometry x="60" y="630" width="280" height="10" as="geometry" />
        </mxCell>
        <mxCell id="nyLHJpOvesoisV4IKTzy-19" value="&lt;font style=&quot;font-size: 18px&quot;&gt;&lt;b&gt;&amp;nbsp; 最新图书需求&lt;/b&gt;&lt;/font&gt;" style="rounded=0;whiteSpace=wrap;html=1;fillColor=#ffffff;align=left;strokeColor=none;" parent="1" vertex="1">
          <mxGeometry x="40" y="790" width="320" height="60" as="geometry" />
        </mxCell>
        <mxCell id="nyLHJpOvesoisV4IKTzy-20" value="封面" style="rounded=0;whiteSpace=wrap;html=1;fillColor=#E6E6E6;strokeColor=none;" parent="1" vertex="1">
          <mxGeometry x="60" y="850" width="70" height="90" as="geometry" />
        </mxCell>
        <mxCell id="nyLHJpOvesoisV4IKTzy-21" value="" style="rounded=0;whiteSpace=wrap;html=1;fillColor=#E6E6E6;strokeColor=none;" parent="1" vertex="1">
          <mxGeometry x="150" y="850" width="70" height="90" as="geometry" />
        </mxCell>
        <mxCell id="nyLHJpOvesoisV4IKTzy-22" value="" style="rounded=0;whiteSpace=wrap;html=1;fillColor=#E6E6E6;strokeColor=none;" parent="1" vertex="1">
          <mxGeometry x="240" y="850" width="70" height="90" as="geometry" />
        </mxCell>
        <mxCell id="nyLHJpOvesoisV4IKTzy-23" value="书名" style="rounded=0;whiteSpace=wrap;html=1;fillColor=#E6E6E6;strokeColor=none;" parent="1" vertex="1">
          <mxGeometry x="60" y="950" width="70" height="10" as="geometry" />
        </mxCell>
        <mxCell id="nyLHJpOvesoisV4IKTzy-24" value="" style="rounded=0;whiteSpace=wrap;html=1;fillColor=#E6E6E6;strokeColor=none;" parent="1" vertex="1">
          <mxGeometry x="150" y="950" width="70" height="10" as="geometry" />
        </mxCell>
        <mxCell id="nyLHJpOvesoisV4IKTzy-25" value="" style="rounded=0;whiteSpace=wrap;html=1;fillColor=#E6E6E6;strokeColor=none;" parent="1" vertex="1">
          <mxGeometry x="240" y="950" width="70" height="10" as="geometry" />
        </mxCell>
        <mxCell id="nyLHJpOvesoisV4IKTzy-26" value="&lt;font style=&quot;font-size: 18px&quot;&gt;&lt;b&gt;&amp;nbsp; 最新物流需求&lt;/b&gt;&lt;/font&gt;" style="rounded=0;whiteSpace=wrap;html=1;fillColor=#ffffff;align=left;strokeColor=none;" parent="1" vertex="1">
          <mxGeometry x="40" y="990" width="320" height="60" as="geometry" />
        </mxCell>
        <mxCell id="nyLHJpOvesoisV4IKTzy-27" value="&amp;nbsp; 发起人" style="rounded=0;whiteSpace=wrap;html=1;fillColor=#E6E6E6;strokeColor=none;align=left;" parent="1" vertex="1">
          <mxGeometry x="60" y="1050" width="80" height="20" as="geometry" />
        </mxCell>
        <mxCell id="nyLHJpOvesoisV4IKTzy-28" value="&lt;span&gt;&amp;nbsp; 时间&amp;nbsp; &amp;nbsp; 地点（省+市）&amp;nbsp;&lt;/span&gt;" style="rounded=0;whiteSpace=wrap;html=1;fillColor=#E6E6E6;strokeColor=none;align=left;" parent="1" vertex="1">
          <mxGeometry x="60" y="1080" width="280" height="10" as="geometry" />
        </mxCell>
        <mxCell id="nyLHJpOvesoisV4IKTzy-29" value="" style="rounded=0;whiteSpace=wrap;html=1;fillColor=#E6E6E6;strokeColor=none;align=left;" parent="1" vertex="1">
          <mxGeometry x="60" y="300" width="280" height="10" as="geometry" />
        </mxCell>
        <mxCell id="nyLHJpOvesoisV4IKTzy-30" value="" style="rounded=0;whiteSpace=wrap;html=1;fillColor=#E6E6E6;strokeColor=none;" parent="1" vertex="1">
          <mxGeometry x="60" y="270" width="120" height="20" as="geometry" />
        </mxCell>
        <mxCell id="nyLHJpOvesoisV4IKTzy-31" value="" style="endArrow=none;html=1;exitX=1;exitY=0;exitDx=0;exitDy=0;entryX=0;entryY=0;entryDx=0;entryDy=0;strokeColor=#E6E6E6;" parent="1" edge="1">
          <mxGeometry width="50" height="50" relative="1" as="geometry">
            <mxPoint x="360" y="339.9999999999999" as="sourcePoint" />
            <mxPoint x="40.000000000000114" y="339.9999999999999" as="targetPoint" />
          </mxGeometry>
        </mxCell>
        <mxCell id="nyLHJpOvesoisV4IKTzy-32" value="" style="endArrow=none;html=1;exitX=1;exitY=0;exitDx=0;exitDy=0;entryX=0;entryY=0;entryDx=0;entryDy=0;strokeColor=#E6E6E6;" parent="1" edge="1">
          <mxGeometry width="50" height="50" relative="1" as="geometry">
            <mxPoint x="360" y="540" as="sourcePoint" />
            <mxPoint x="40.000000000000114" y="540" as="targetPoint" />
          </mxGeometry>
        </mxCell>
        <mxCell id="nyLHJpOvesoisV4IKTzy-33" value="" style="rounded=0;whiteSpace=wrap;html=1;fillColor=#E6E6E6;strokeColor=none;align=left;" parent="1" vertex="1">
          <mxGeometry x="60" y="660" width="130" height="20" as="geometry" />
        </mxCell>
        <mxCell id="nyLHJpOvesoisV4IKTzy-34" value="" style="rounded=0;whiteSpace=wrap;html=1;fillColor=#E6E6E6;strokeColor=none;align=left;" parent="1" vertex="1">
          <mxGeometry x="60" y="690" width="280" height="10" as="geometry" />
        </mxCell>
        <mxCell id="nyLHJpOvesoisV4IKTzy-35" value="" style="rounded=0;whiteSpace=wrap;html=1;fillColor=#E6E6E6;strokeColor=none;align=left;" parent="1" vertex="1">
          <mxGeometry x="60" y="720" width="130" height="20" as="geometry" />
        </mxCell>
        <mxCell id="nyLHJpOvesoisV4IKTzy-36" value="" style="rounded=0;whiteSpace=wrap;html=1;fillColor=#E6E6E6;strokeColor=none;align=left;" parent="1" vertex="1">
          <mxGeometry x="60" y="750" width="280" height="10" as="geometry" />
        </mxCell>
        <mxCell id="nyLHJpOvesoisV4IKTzy-37" value="" style="endArrow=none;html=1;exitX=1;exitY=0;exitDx=0;exitDy=0;entryX=0;entryY=0;entryDx=0;entryDy=0;strokeColor=#E6E6E6;" parent="1" edge="1">
          <mxGeometry width="50" height="50" relative="1" as="geometry">
            <mxPoint x="360" y="790" as="sourcePoint" />
            <mxPoint x="40.000000000000114" y="790" as="targetPoint" />
          </mxGeometry>
        </mxCell>
        <mxCell id="nyLHJpOvesoisV4IKTzy-38" value="" style="endArrow=none;html=1;exitX=1;exitY=0;exitDx=0;exitDy=0;entryX=0;entryY=0;entryDx=0;entryDy=0;strokeColor=#E6E6E6;" parent="1" edge="1">
          <mxGeometry width="50" height="50" relative="1" as="geometry">
            <mxPoint x="360" y="990" as="sourcePoint" />
            <mxPoint x="40.000000000000114" y="990" as="targetPoint" />
          </mxGeometry>
        </mxCell>
        <mxCell id="nyLHJpOvesoisV4IKTzy-39" value="" style="rounded=0;whiteSpace=wrap;html=1;fillColor=#E6E6E6;strokeColor=none;align=left;" parent="1" vertex="1">
          <mxGeometry x="60" y="1110" width="80" height="20" as="geometry" />
        </mxCell>
        <mxCell id="nyLHJpOvesoisV4IKTzy-40" value="" style="rounded=0;whiteSpace=wrap;html=1;fillColor=#E6E6E6;strokeColor=none;align=left;" parent="1" vertex="1">
          <mxGeometry x="60" y="1140" width="280" height="10" as="geometry" />
        </mxCell>
        <mxCell id="nyLHJpOvesoisV4IKTzy-41" value="" style="rounded=0;whiteSpace=wrap;html=1;fillColor=#E6E6E6;strokeColor=none;align=left;" parent="1" vertex="1">
          <mxGeometry x="60" y="1170" width="80" height="20" as="geometry" />
        </mxCell>
        <mxCell id="nyLHJpOvesoisV4IKTzy-42" value="" style="rounded=0;whiteSpace=wrap;html=1;fillColor=#E6E6E6;strokeColor=none;align=left;" parent="1" vertex="1">
          <mxGeometry x="60" y="1200" width="280" height="10" as="geometry" />
        </mxCell>
      </root>
    </mxGraphModel>
  </diagram>
  <diagram id="YchB2aE9jpU0AAz9Rzih" name="书海">
    <mxGraphModel dx="946" dy="519" grid="1" gridSize="10" guides="1" tooltips="1" connect="1" arrows="1" fold="1" page="1" pageScale="1" pageWidth="827" pageHeight="1169" math="0" shadow="0">
      <root>
        <mxCell id="Dt4uxyrxDY9K_CSLoE5w-0" />
        <mxCell id="Dt4uxyrxDY9K_CSLoE5w-1" parent="Dt4uxyrxDY9K_CSLoE5w-0" />
        <mxCell id="r5TtwfH_cQ7AwSXX60Mc-0" value="" style="rounded=0;whiteSpace=wrap;html=1;fillColor=#ffffff;strokeColor=none;" parent="Dt4uxyrxDY9K_CSLoE5w-1" vertex="1">
          <mxGeometry x="40" y="40" width="320" height="640" as="geometry" />
        </mxCell>
        <mxCell id="r5TtwfH_cQ7AwSXX60Mc-1" value="&lt;span style=&quot;font-size: 18px&quot;&gt;书海&lt;/span&gt;" style="rounded=0;whiteSpace=wrap;html=1;fillColor=#ffffff;strokeColor=none;" parent="Dt4uxyrxDY9K_CSLoE5w-1" vertex="1">
          <mxGeometry x="40" y="40" width="320" height="50" as="geometry" />
        </mxCell>
        <mxCell id="MXxWtviEwKZRr2ko2rUo-0" value="&lt;font style=&quot;font-size: 14px&quot;&gt;用户当前所在城市图书分布图&lt;br&gt;&lt;/font&gt;" style="rounded=0;whiteSpace=wrap;html=1;fillColor=#E6E6E6;strokeColor=none;" parent="Dt4uxyrxDY9K_CSLoE5w-1" vertex="1">
          <mxGeometry x="40" y="130" width="320" height="130" as="geometry" />
        </mxCell>
        <mxCell id="MXxWtviEwKZRr2ko2rUo-1" value="&lt;font style=&quot;font-size: 14px&quot;&gt;捐书&lt;/font&gt;" style="rounded=0;whiteSpace=wrap;html=1;fillColor=#ffffff;strokeColor=none;" parent="Dt4uxyrxDY9K_CSLoE5w-1" vertex="1">
          <mxGeometry x="280" y="40" width="80" height="50" as="geometry" />
        </mxCell>
        <mxCell id="MXxWtviEwKZRr2ko2rUo-5" value="&lt;font style=&quot;font-size: 14px&quot;&gt;分类&lt;/font&gt;" style="rounded=0;whiteSpace=wrap;html=1;fillColor=#ffffff;strokeColor=none;" parent="Dt4uxyrxDY9K_CSLoE5w-1" vertex="1">
          <mxGeometry x="40" y="40" width="60" height="50" as="geometry" />
        </mxCell>
        <mxCell id="1i8FyTB-MOMX9qJmqtq0-0" value="封面" style="rounded=0;whiteSpace=wrap;html=1;fillColor=#E6E6E6;strokeColor=none;" parent="Dt4uxyrxDY9K_CSLoE5w-1" vertex="1">
          <mxGeometry x="50" y="320" width="70" height="90" as="geometry" />
        </mxCell>
        <mxCell id="7eb_b0Y6-FVWKmWhAk77-0" value="&lt;font style=&quot;font-size: 18px&quot;&gt;&lt;b&gt;&amp;nbsp; &amp;nbsp;书籍&lt;/b&gt;&lt;/font&gt;" style="rounded=0;whiteSpace=wrap;html=1;fillColor=#ffffff;align=left;strokeColor=none;" parent="Dt4uxyrxDY9K_CSLoE5w-1" vertex="1">
          <mxGeometry x="40" y="260" width="320" height="60" as="geometry" />
        </mxCell>
        <mxCell id="oNNaKoMQsTKUybMNitqQ-0" value="" style="rounded=0;whiteSpace=wrap;html=1;fillColor=#ffffff;strokeColor=none;" parent="Dt4uxyrxDY9K_CSLoE5w-1" vertex="1">
          <mxGeometry x="40" y="90" width="320" height="40" as="geometry" />
        </mxCell>
        <mxCell id="oNNaKoMQsTKUybMNitqQ-2" value="&lt;font color=&quot;#808080&quot;&gt;&amp;nbsp; &amp;nbsp;搜索书籍&lt;/font&gt;" style="rounded=1;whiteSpace=wrap;html=1;strokeColor=none;align=left;fillColor=#E6E6E6;" parent="Dt4uxyrxDY9K_CSLoE5w-1" vertex="1">
          <mxGeometry x="100" y="90" width="250" height="30" as="geometry" />
        </mxCell>
        <mxCell id="oNNaKoMQsTKUybMNitqQ-3" value="&lt;font style=&quot;font-size: 12px&quot;&gt;按热度&amp;nbsp; &amp;nbsp;按距离&amp;nbsp; 按时间&lt;/font&gt;" style="rounded=0;whiteSpace=wrap;html=1;fillColor=#ffffff;strokeColor=none;" parent="Dt4uxyrxDY9K_CSLoE5w-1" vertex="1">
          <mxGeometry x="210" y="260" width="150" height="60" as="geometry" />
        </mxCell>
        <mxCell id="oNNaKoMQsTKUybMNitqQ-4" value="&lt;font style=&quot;font-size: 14px&quot;&gt;&amp;nbsp; 书名&lt;/font&gt;" style="rounded=0;whiteSpace=wrap;html=1;fillColor=#E6E6E6;strokeColor=none;align=left;" parent="Dt4uxyrxDY9K_CSLoE5w-1" vertex="1">
          <mxGeometry x="130" y="325" width="110" height="20" as="geometry" />
        </mxCell>
        <mxCell id="oNNaKoMQsTKUybMNitqQ-5" value="&amp;nbsp; 捐书人&amp;nbsp; &amp;nbsp;状态&amp;nbsp;&amp;nbsp;" style="rounded=0;whiteSpace=wrap;html=1;fillColor=#E6E6E6;strokeColor=none;align=left;" parent="Dt4uxyrxDY9K_CSLoE5w-1" vertex="1">
          <mxGeometry x="130" y="355" width="170" height="10" as="geometry" />
        </mxCell>
        <mxCell id="oNNaKoMQsTKUybMNitqQ-6" value="&amp;nbsp; 简介&amp;nbsp;" style="rounded=0;whiteSpace=wrap;html=1;fillColor=#E6E6E6;strokeColor=none;align=left;" parent="Dt4uxyrxDY9K_CSLoE5w-1" vertex="1">
          <mxGeometry x="130" y="375" width="220" height="10" as="geometry" />
        </mxCell>
        <mxCell id="oNNaKoMQsTKUybMNitqQ-7" value="" style="rounded=0;whiteSpace=wrap;html=1;fillColor=#E6E6E6;strokeColor=none;align=left;" parent="Dt4uxyrxDY9K_CSLoE5w-1" vertex="1">
          <mxGeometry x="130" y="395" width="220" height="10" as="geometry" />
        </mxCell>
        <mxCell id="oNNaKoMQsTKUybMNitqQ-8" value="" style="rounded=0;whiteSpace=wrap;html=1;fillColor=#E6E6E6;strokeColor=none;" parent="Dt4uxyrxDY9K_CSLoE5w-1" vertex="1">
          <mxGeometry x="50" y="430" width="70" height="90" as="geometry" />
        </mxCell>
        <mxCell id="oNNaKoMQsTKUybMNitqQ-9" value="" style="rounded=0;whiteSpace=wrap;html=1;fillColor=#E6E6E6;strokeColor=none;align=left;" parent="Dt4uxyrxDY9K_CSLoE5w-1" vertex="1">
          <mxGeometry x="130" y="435" width="110" height="20" as="geometry" />
        </mxCell>
        <mxCell id="oNNaKoMQsTKUybMNitqQ-10" value="" style="rounded=0;whiteSpace=wrap;html=1;fillColor=#E6E6E6;strokeColor=none;align=left;" parent="Dt4uxyrxDY9K_CSLoE5w-1" vertex="1">
          <mxGeometry x="130" y="465" width="170" height="10" as="geometry" />
        </mxCell>
        <mxCell id="oNNaKoMQsTKUybMNitqQ-11" value="" style="rounded=0;whiteSpace=wrap;html=1;fillColor=#E6E6E6;strokeColor=none;align=left;" parent="Dt4uxyrxDY9K_CSLoE5w-1" vertex="1">
          <mxGeometry x="130" y="485" width="220" height="10" as="geometry" />
        </mxCell>
        <mxCell id="oNNaKoMQsTKUybMNitqQ-12" value="" style="rounded=0;whiteSpace=wrap;html=1;fillColor=#E6E6E6;strokeColor=none;align=left;" parent="Dt4uxyrxDY9K_CSLoE5w-1" vertex="1">
          <mxGeometry x="130" y="505" width="220" height="10" as="geometry" />
        </mxCell>
        <mxCell id="oNNaKoMQsTKUybMNitqQ-13" value="" style="rounded=0;whiteSpace=wrap;html=1;fillColor=#E6E6E6;strokeColor=none;" parent="Dt4uxyrxDY9K_CSLoE5w-1" vertex="1">
          <mxGeometry x="50" y="540" width="70" height="90" as="geometry" />
        </mxCell>
        <mxCell id="oNNaKoMQsTKUybMNitqQ-14" value="" style="rounded=0;whiteSpace=wrap;html=1;fillColor=#E6E6E6;strokeColor=none;align=left;" parent="Dt4uxyrxDY9K_CSLoE5w-1" vertex="1">
          <mxGeometry x="130" y="545" width="110" height="20" as="geometry" />
        </mxCell>
        <mxCell id="oNNaKoMQsTKUybMNitqQ-15" value="" style="rounded=0;whiteSpace=wrap;html=1;fillColor=#E6E6E6;strokeColor=none;align=left;" parent="Dt4uxyrxDY9K_CSLoE5w-1" vertex="1">
          <mxGeometry x="130" y="575" width="170" height="10" as="geometry" />
        </mxCell>
        <mxCell id="oNNaKoMQsTKUybMNitqQ-16" value="" style="rounded=0;whiteSpace=wrap;html=1;fillColor=#E6E6E6;strokeColor=none;align=left;" parent="Dt4uxyrxDY9K_CSLoE5w-1" vertex="1">
          <mxGeometry x="130" y="595" width="220" height="10" as="geometry" />
        </mxCell>
        <mxCell id="oNNaKoMQsTKUybMNitqQ-17" value="" style="rounded=0;whiteSpace=wrap;html=1;fillColor=#E6E6E6;strokeColor=none;align=left;" parent="Dt4uxyrxDY9K_CSLoE5w-1" vertex="1">
          <mxGeometry x="130" y="615" width="220" height="10" as="geometry" />
        </mxCell>
        <mxCell id="oNNaKoMQsTKUybMNitqQ-18" value="" style="rounded=0;whiteSpace=wrap;html=1;fillColor=#ffffff;strokeColor=none;" parent="Dt4uxyrxDY9K_CSLoE5w-1" vertex="1">
          <mxGeometry x="400.01" y="40" width="320" height="640" as="geometry" />
        </mxCell>
        <mxCell id="oNNaKoMQsTKUybMNitqQ-19" value="&lt;span style=&quot;font-size: 18px&quot;&gt;书籍详情&lt;/span&gt;" style="rounded=0;whiteSpace=wrap;html=1;fillColor=#ffffff;strokeColor=none;" parent="Dt4uxyrxDY9K_CSLoE5w-1" vertex="1">
          <mxGeometry x="400.01" y="40" width="320" height="50" as="geometry" />
        </mxCell>
        <mxCell id="OabBJyqnuptXzgr-lKAM-0" value="" style="rounded=0;whiteSpace=wrap;html=1;fillColor=#E6E6E6;strokeColor=none;" parent="Dt4uxyrxDY9K_CSLoE5w-1" vertex="1">
          <mxGeometry x="400.01" y="90" width="320" height="170" as="geometry" />
        </mxCell>
        <mxCell id="GIp-94DOhZQdgEt9rg4T-1" value="封面" style="rounded=0;whiteSpace=wrap;html=1;strokeColor=none;fillColor=#CCCCCC;" parent="Dt4uxyrxDY9K_CSLoE5w-1" vertex="1">
          <mxGeometry x="513.34" y="110" width="93.33" height="120" as="geometry" />
        </mxCell>
        <mxCell id="OabBJyqnuptXzgr-lKAM-1" value="&lt;font style=&quot;font-size: 18px&quot;&gt;&lt;b&gt;&amp;nbsp; &amp;nbsp;书名&lt;/b&gt;&lt;/font&gt;" style="rounded=0;whiteSpace=wrap;html=1;fillColor=#ffffff;align=left;strokeColor=none;" parent="Dt4uxyrxDY9K_CSLoE5w-1" vertex="1">
          <mxGeometry x="400.01" y="260" width="320" height="60" as="geometry" />
        </mxCell>
        <mxCell id="OabBJyqnuptXzgr-lKAM-3" value="" style="shape=callout;whiteSpace=wrap;html=1;perimeter=calloutPerimeter;strokeColor=#000000;direction=west;fillColor=#FFFFFF;size=20;position=0.25;position2=0.33;base=20;rounded=0;" parent="Dt4uxyrxDY9K_CSLoE5w-1" vertex="1">
          <mxGeometry x="240" y="80" width="120" height="100" as="geometry" />
        </mxCell>
        <mxCell id="MXxWtviEwKZRr2ko2rUo-3" value="&lt;span style=&quot;font-size: 14px&quot;&gt;扫码添加&lt;/span&gt;" style="rounded=0;whiteSpace=wrap;html=1;fillColor=#ffffff;strokeColor=none;" parent="Dt4uxyrxDY9K_CSLoE5w-1" vertex="1">
          <mxGeometry x="240" y="100" width="120" height="40" as="geometry" />
        </mxCell>
        <mxCell id="MXxWtviEwKZRr2ko2rUo-4" value="&lt;span style=&quot;font-size: 14px&quot;&gt;手动输入ISBN&lt;/span&gt;" style="rounded=0;whiteSpace=wrap;html=1;fillColor=#ffffff;strokeColor=none;" parent="Dt4uxyrxDY9K_CSLoE5w-1" vertex="1">
          <mxGeometry x="240" y="140" width="120" height="40" as="geometry" />
        </mxCell>
        <mxCell id="OabBJyqnuptXzgr-lKAM-4" value="" style="endArrow=none;html=1;entryX=0;entryY=0;entryDx=0;entryDy=0;strokeColor=#B3B3B3;" parent="Dt4uxyrxDY9K_CSLoE5w-1" edge="1">
          <mxGeometry width="50" height="50" relative="1" as="geometry">
            <mxPoint x="360" y="140" as="sourcePoint" />
            <mxPoint x="240" y="139.99999999999994" as="targetPoint" />
          </mxGeometry>
        </mxCell>
        <mxCell id="OabBJyqnuptXzgr-lKAM-8" value="&lt;font style=&quot;font-size: 12px&quot;&gt;所在城市&lt;/font&gt;" style="rounded=0;whiteSpace=wrap;html=1;fillColor=#ffffff;strokeColor=none;" parent="Dt4uxyrxDY9K_CSLoE5w-1" vertex="1">
          <mxGeometry x="40" y="90" width="60" height="30" as="geometry" />
        </mxCell>
        <mxCell id="1xJz0wh_PoeMhjQBkEzt-6" value="作者：" style="rounded=0;whiteSpace=wrap;html=1;fillColor=#E6E6E6;strokeColor=none;align=left;" parent="Dt4uxyrxDY9K_CSLoE5w-1" vertex="1">
          <mxGeometry x="414" y="372" width="220" height="10" as="geometry" />
        </mxCell>
        <mxCell id="1xJz0wh_PoeMhjQBkEzt-7" value="&lt;font style=&quot;font-size: 14px&quot;&gt;一句话简介&lt;/font&gt;" style="rounded=0;whiteSpace=wrap;html=1;fillColor=#E6E6E6;strokeColor=none;align=left;" parent="Dt4uxyrxDY9K_CSLoE5w-1" vertex="1">
          <mxGeometry x="414" y="342" width="110" height="20" as="geometry" />
        </mxCell>
        <mxCell id="1xJz0wh_PoeMhjQBkEzt-8" value="出版社：" style="rounded=0;whiteSpace=wrap;html=1;fillColor=#E6E6E6;strokeColor=none;align=left;" parent="Dt4uxyrxDY9K_CSLoE5w-1" vertex="1">
          <mxGeometry x="414" y="392" width="220" height="10" as="geometry" />
        </mxCell>
        <mxCell id="1xJz0wh_PoeMhjQBkEzt-9" value="出版日期：" style="rounded=0;whiteSpace=wrap;html=1;fillColor=#E6E6E6;strokeColor=none;align=left;" parent="Dt4uxyrxDY9K_CSLoE5w-1" vertex="1">
          <mxGeometry x="414" y="411" width="220" height="10" as="geometry" />
        </mxCell>
        <mxCell id="1xJz0wh_PoeMhjQBkEzt-14" value="" style="rounded=0;whiteSpace=wrap;html=1;fillColor=#E6E6E6;strokeColor=none;" parent="Dt4uxyrxDY9K_CSLoE5w-1" vertex="1">
          <mxGeometry x="400.01" y="545" width="320" height="135" as="geometry" />
        </mxCell>
        <mxCell id="1xJz0wh_PoeMhjQBkEzt-15" value="&lt;font style=&quot;font-size: 18px&quot;&gt;&lt;b&gt;&amp;nbsp; &amp;nbsp;漂流地图&lt;/b&gt;&lt;/font&gt;" style="rounded=0;whiteSpace=wrap;html=1;fillColor=#ffffff;align=left;strokeColor=none;" parent="Dt4uxyrxDY9K_CSLoE5w-1" vertex="1">
          <mxGeometry x="400.01" y="485" width="320" height="60" as="geometry" />
        </mxCell>
        <mxCell id="1xJz0wh_PoeMhjQBkEzt-18" value="&lt;font style=&quot;font-size: 14px&quot;&gt;操作&lt;/font&gt;" style="rounded=0;whiteSpace=wrap;html=1;fillColor=#ffffff;strokeColor=none;" parent="Dt4uxyrxDY9K_CSLoE5w-1" vertex="1">
          <mxGeometry x="650.01" y="40" width="70" height="50" as="geometry" />
        </mxCell>
        <mxCell id="GIp-94DOhZQdgEt9rg4T-0" value="" style="endArrow=none;html=1;exitX=1;exitY=0;exitDx=0;exitDy=0;entryX=0;entryY=0;entryDx=0;entryDy=0;strokeColor=#B3B3B3;" parent="Dt4uxyrxDY9K_CSLoE5w-1" edge="1">
          <mxGeometry width="50" height="50" relative="1" as="geometry">
            <mxPoint x="720.01" y="90" as="sourcePoint" />
            <mxPoint x="400.0100000000001" y="90" as="targetPoint" />
          </mxGeometry>
        </mxCell>
        <mxCell id="1xJz0wh_PoeMhjQBkEzt-19" value="" style="shape=callout;whiteSpace=wrap;html=1;perimeter=calloutPerimeter;strokeColor=#000000;direction=west;fillColor=#FFFFFF;size=20;position=0.25;position2=0.33;base=20;rounded=0;" parent="Dt4uxyrxDY9K_CSLoE5w-1" vertex="1">
          <mxGeometry x="600.01" y="80" width="120" height="140" as="geometry" />
        </mxCell>
        <mxCell id="1xJz0wh_PoeMhjQBkEzt-20" value="&lt;span style=&quot;font-size: 14px&quot;&gt;借书/预定/还书&lt;/span&gt;" style="rounded=0;whiteSpace=wrap;html=1;fillColor=#ffffff;strokeColor=none;" parent="Dt4uxyrxDY9K_CSLoE5w-1" vertex="1">
          <mxGeometry x="600.01" y="100" width="120" height="40" as="geometry" />
        </mxCell>
        <mxCell id="1xJz0wh_PoeMhjQBkEzt-21" value="&lt;span style=&quot;font-size: 14px&quot;&gt;下架/修改&lt;/span&gt;" style="rounded=0;whiteSpace=wrap;html=1;fillColor=#ffffff;strokeColor=none;" parent="Dt4uxyrxDY9K_CSLoE5w-1" vertex="1">
          <mxGeometry x="600.01" y="140" width="120" height="40" as="geometry" />
        </mxCell>
        <mxCell id="1xJz0wh_PoeMhjQBkEzt-22" value="" style="endArrow=none;html=1;entryX=0;entryY=0;entryDx=0;entryDy=0;strokeColor=#B3B3B3;" parent="Dt4uxyrxDY9K_CSLoE5w-1" edge="1">
          <mxGeometry width="50" height="50" relative="1" as="geometry">
            <mxPoint x="720.01" y="140" as="sourcePoint" />
            <mxPoint x="600.01" y="140" as="targetPoint" />
          </mxGeometry>
        </mxCell>
        <mxCell id="1xJz0wh_PoeMhjQBkEzt-23" value="&lt;span style=&quot;font-size: 14px&quot;&gt;认领&lt;/span&gt;" style="rounded=0;whiteSpace=wrap;html=1;fillColor=#ffffff;strokeColor=none;" parent="Dt4uxyrxDY9K_CSLoE5w-1" vertex="1">
          <mxGeometry x="600.01" y="180" width="120" height="40" as="geometry" />
        </mxCell>
        <mxCell id="1xJz0wh_PoeMhjQBkEzt-25" value="" style="endArrow=none;html=1;entryX=0;entryY=0;entryDx=0;entryDy=0;strokeColor=#B3B3B3;" parent="Dt4uxyrxDY9K_CSLoE5w-1" edge="1">
          <mxGeometry width="50" height="50" relative="1" as="geometry">
            <mxPoint x="720" y="180" as="sourcePoint" />
            <mxPoint x="600" y="180" as="targetPoint" />
          </mxGeometry>
        </mxCell>
        <mxCell id="PMjbe9yRD0ZlF9W9wTDp-0" value="状态" style="rounded=1;whiteSpace=wrap;html=1;strokeColor=#000000;fillColor=#ffffff;" parent="Dt4uxyrxDY9K_CSLoE5w-1" vertex="1">
          <mxGeometry x="414" y="310" width="39.99" height="20" as="geometry" />
        </mxCell>
        <mxCell id="PMjbe9yRD0ZlF9W9wTDp-1" value="省份&amp;nbsp; 城市" style="rounded=1;whiteSpace=wrap;html=1;strokeColor=#000000;fillColor=#ffffff;" parent="Dt4uxyrxDY9K_CSLoE5w-1" vertex="1">
          <mxGeometry x="470" y="310" width="76.65" height="20" as="geometry" />
        </mxCell>
        <mxCell id="PMjbe9yRD0ZlF9W9wTDp-2" value="豆瓣评分" style="rounded=1;whiteSpace=wrap;html=1;fillColor=#E6E6E6;strokeColor=none;" parent="Dt4uxyrxDY9K_CSLoE5w-1" vertex="1">
          <mxGeometry x="417.01" y="440" width="286" height="45" as="geometry" />
        </mxCell>
        <mxCell id="6AcSj3go72NVZm0JrlFY-0" value="持有人" style="rounded=1;whiteSpace=wrap;html=1;" parent="Dt4uxyrxDY9K_CSLoE5w-1" vertex="1">
          <mxGeometry x="560" y="310" width="60" height="20" as="geometry" />
        </mxCell>
      </root>
    </mxGraphModel>
  </diagram>
  <diagram id="733uwiBfqzi6VGFALD6O" name="心愿">
    <mxGraphModel dx="946" dy="519" grid="1" gridSize="10" guides="1" tooltips="1" connect="1" arrows="1" fold="1" page="1" pageScale="1" pageWidth="827" pageHeight="1169" math="0" shadow="0">
      <root>
        <mxCell id="poq6CiqNfJhs6e6bkk0Y-0" />
        <mxCell id="poq6CiqNfJhs6e6bkk0Y-1" parent="poq6CiqNfJhs6e6bkk0Y-0" />
        <mxCell id="e66lZkXAYow3nxMT18Y8-0" value="" style="rounded=0;whiteSpace=wrap;html=1;fillColor=#ffffff;strokeColor=none;" parent="poq6CiqNfJhs6e6bkk0Y-1" vertex="1">
          <mxGeometry x="40" y="40" width="320" height="640" as="geometry" />
        </mxCell>
        <mxCell id="e66lZkXAYow3nxMT18Y8-1" value="&lt;span style=&quot;font-size: 18px&quot;&gt;心愿&lt;/span&gt;" style="rounded=0;whiteSpace=wrap;html=1;fillColor=#ffffff;strokeColor=none;" parent="poq6CiqNfJhs6e6bkk0Y-1" vertex="1">
          <mxGeometry x="40" y="40" width="320" height="50" as="geometry" />
        </mxCell>
        <mxCell id="e66lZkXAYow3nxMT18Y8-5" value="封面" style="rounded=0;whiteSpace=wrap;html=1;fillColor=#E6E6E6;strokeColor=none;" parent="poq6CiqNfJhs6e6bkk0Y-1" vertex="1">
          <mxGeometry x="50" y="180" width="70" height="90" as="geometry" />
        </mxCell>
        <mxCell id="e66lZkXAYow3nxMT18Y8-6" value="&lt;font style=&quot;font-size: 18px&quot;&gt;&lt;b&gt;&amp;nbsp; &amp;nbsp;需求书目&lt;/b&gt;&lt;/font&gt;" style="rounded=0;whiteSpace=wrap;html=1;fillColor=#ffffff;align=left;strokeColor=none;" parent="poq6CiqNfJhs6e6bkk0Y-1" vertex="1">
          <mxGeometry x="40" y="120" width="320" height="60" as="geometry" />
        </mxCell>
        <mxCell id="e66lZkXAYow3nxMT18Y8-7" value="" style="rounded=0;whiteSpace=wrap;html=1;fillColor=#ffffff;strokeColor=none;" parent="poq6CiqNfJhs6e6bkk0Y-1" vertex="1">
          <mxGeometry x="40" y="90" width="320" height="40" as="geometry" />
        </mxCell>
        <mxCell id="e66lZkXAYow3nxMT18Y8-8" value="&lt;font color=&quot;#808080&quot;&gt;&amp;nbsp; &amp;nbsp;搜索书籍&lt;/font&gt;" style="rounded=1;whiteSpace=wrap;html=1;strokeColor=none;align=left;fillColor=#E6E6E6;" parent="poq6CiqNfJhs6e6bkk0Y-1" vertex="1">
          <mxGeometry x="50" y="90" width="300" height="30" as="geometry" />
        </mxCell>
        <mxCell id="e66lZkXAYow3nxMT18Y8-9" value="&lt;font style=&quot;font-size: 12px&quot;&gt;按需求度&amp;nbsp; &amp;nbsp;按距离&amp;nbsp; 按时间&lt;/font&gt;" style="rounded=0;whiteSpace=wrap;html=1;fillColor=#ffffff;strokeColor=none;" parent="poq6CiqNfJhs6e6bkk0Y-1" vertex="1">
          <mxGeometry x="210" y="120" width="150" height="60" as="geometry" />
        </mxCell>
        <mxCell id="e66lZkXAYow3nxMT18Y8-10" value="书名" style="rounded=0;whiteSpace=wrap;html=1;fillColor=#E6E6E6;strokeColor=none;align=left;" parent="poq6CiqNfJhs6e6bkk0Y-1" vertex="1">
          <mxGeometry x="130" y="185" width="110" height="20" as="geometry" />
        </mxCell>
        <mxCell id="e66lZkXAYow3nxMT18Y8-11" value="求书人&amp;nbsp; &amp;nbsp;状态&amp;nbsp;&amp;nbsp;" style="rounded=0;whiteSpace=wrap;html=1;fillColor=#E6E6E6;strokeColor=none;align=left;" parent="poq6CiqNfJhs6e6bkk0Y-1" vertex="1">
          <mxGeometry x="130" y="215" width="170" height="10" as="geometry" />
        </mxCell>
        <mxCell id="e66lZkXAYow3nxMT18Y8-12" value="&amp;nbsp;简介&amp;nbsp;" style="rounded=0;whiteSpace=wrap;html=1;fillColor=#E6E6E6;strokeColor=none;align=left;" parent="poq6CiqNfJhs6e6bkk0Y-1" vertex="1">
          <mxGeometry x="130" y="235" width="220" height="10" as="geometry" />
        </mxCell>
        <mxCell id="e66lZkXAYow3nxMT18Y8-13" value="" style="rounded=0;whiteSpace=wrap;html=1;fillColor=#E6E6E6;strokeColor=none;align=left;" parent="poq6CiqNfJhs6e6bkk0Y-1" vertex="1">
          <mxGeometry x="130" y="255" width="220" height="10" as="geometry" />
        </mxCell>
        <mxCell id="e66lZkXAYow3nxMT18Y8-14" value="" style="rounded=0;whiteSpace=wrap;html=1;fillColor=#E6E6E6;strokeColor=none;" parent="poq6CiqNfJhs6e6bkk0Y-1" vertex="1">
          <mxGeometry x="50" y="290" width="70" height="90" as="geometry" />
        </mxCell>
        <mxCell id="e66lZkXAYow3nxMT18Y8-15" value="" style="rounded=0;whiteSpace=wrap;html=1;fillColor=#E6E6E6;strokeColor=none;align=left;" parent="poq6CiqNfJhs6e6bkk0Y-1" vertex="1">
          <mxGeometry x="130" y="295" width="110" height="20" as="geometry" />
        </mxCell>
        <mxCell id="e66lZkXAYow3nxMT18Y8-16" value="" style="rounded=0;whiteSpace=wrap;html=1;fillColor=#E6E6E6;strokeColor=none;align=left;" parent="poq6CiqNfJhs6e6bkk0Y-1" vertex="1">
          <mxGeometry x="130" y="325" width="170" height="10" as="geometry" />
        </mxCell>
        <mxCell id="e66lZkXAYow3nxMT18Y8-17" value="" style="rounded=0;whiteSpace=wrap;html=1;fillColor=#E6E6E6;strokeColor=none;align=left;" parent="poq6CiqNfJhs6e6bkk0Y-1" vertex="1">
          <mxGeometry x="130" y="345" width="220" height="10" as="geometry" />
        </mxCell>
        <mxCell id="e66lZkXAYow3nxMT18Y8-18" value="" style="rounded=0;whiteSpace=wrap;html=1;fillColor=#E6E6E6;strokeColor=none;align=left;" parent="poq6CiqNfJhs6e6bkk0Y-1" vertex="1">
          <mxGeometry x="130" y="365" width="220" height="10" as="geometry" />
        </mxCell>
        <mxCell id="e66lZkXAYow3nxMT18Y8-19" value="" style="rounded=0;whiteSpace=wrap;html=1;fillColor=#E6E6E6;strokeColor=none;" parent="poq6CiqNfJhs6e6bkk0Y-1" vertex="1">
          <mxGeometry x="50" y="400" width="70" height="90" as="geometry" />
        </mxCell>
        <mxCell id="e66lZkXAYow3nxMT18Y8-20" value="" style="rounded=0;whiteSpace=wrap;html=1;fillColor=#E6E6E6;strokeColor=none;align=left;" parent="poq6CiqNfJhs6e6bkk0Y-1" vertex="1">
          <mxGeometry x="130" y="405" width="110" height="20" as="geometry" />
        </mxCell>
        <mxCell id="e66lZkXAYow3nxMT18Y8-21" value="" style="rounded=0;whiteSpace=wrap;html=1;fillColor=#E6E6E6;strokeColor=none;align=left;" parent="poq6CiqNfJhs6e6bkk0Y-1" vertex="1">
          <mxGeometry x="130" y="435" width="170" height="10" as="geometry" />
        </mxCell>
        <mxCell id="e66lZkXAYow3nxMT18Y8-22" value="" style="rounded=0;whiteSpace=wrap;html=1;fillColor=#E6E6E6;strokeColor=none;align=left;" parent="poq6CiqNfJhs6e6bkk0Y-1" vertex="1">
          <mxGeometry x="130" y="455" width="220" height="10" as="geometry" />
        </mxCell>
        <mxCell id="e66lZkXAYow3nxMT18Y8-23" value="" style="rounded=0;whiteSpace=wrap;html=1;fillColor=#E6E6E6;strokeColor=none;align=left;" parent="poq6CiqNfJhs6e6bkk0Y-1" vertex="1">
          <mxGeometry x="130" y="475" width="220" height="10" as="geometry" />
        </mxCell>
        <mxCell id="LssZ4sIYCIFqF3eeUeGO-0" value="&lt;span style=&quot;font-size: 14px&quot;&gt;发布求书&lt;/span&gt;" style="rounded=0;whiteSpace=wrap;html=1;fillColor=#ffffff;strokeColor=none;" parent="poq6CiqNfJhs6e6bkk0Y-1" vertex="1">
          <mxGeometry x="280" y="40" width="80" height="50" as="geometry" />
        </mxCell>
      </root>
    </mxGraphModel>
  </diagram>
  <diagram id="JhgmgOE4VRs-mD_SGUZ8" name="我的">
    <mxGraphModel dx="946" dy="519" grid="1" gridSize="10" guides="1" tooltips="1" connect="1" arrows="1" fold="1" page="1" pageScale="1" pageWidth="827" pageHeight="1169" math="0" shadow="0">
      <root>
        <mxCell id="ykSrCoj4EnFe8CgVLgln-0" />
        <mxCell id="ykSrCoj4EnFe8CgVLgln-1" parent="ykSrCoj4EnFe8CgVLgln-0" />
        <mxCell id="m1RE2QmyNpIdEeSvXVa3-0" value="" style="rounded=0;whiteSpace=wrap;html=1;fillColor=#ffffff;strokeColor=none;" parent="ykSrCoj4EnFe8CgVLgln-1" vertex="1">
          <mxGeometry x="40" y="40" width="320" height="640" as="geometry" />
        </mxCell>
        <mxCell id="m1RE2QmyNpIdEeSvXVa3-1" value="&lt;span style=&quot;font-size: 18px&quot;&gt;我的&lt;/span&gt;" style="rounded=0;whiteSpace=wrap;html=1;fillColor=#ffffff;strokeColor=none;" parent="ykSrCoj4EnFe8CgVLgln-1" vertex="1">
          <mxGeometry x="40" y="40" width="320" height="50" as="geometry" />
        </mxCell>
        <mxCell id="WziUw9CxoFngwD-Fbh6a-1" value="头像" style="ellipse;whiteSpace=wrap;html=1;aspect=fixed;rounded=0;fillColor=#E6E6E6;strokeColor=none;" parent="ykSrCoj4EnFe8CgVLgln-1" vertex="1">
          <mxGeometry x="60" y="110" width="60" height="60" as="geometry" />
        </mxCell>
        <mxCell id="VUUPn2tp5AWd68Dhoarm-0" value="用户名" style="rounded=0;whiteSpace=wrap;html=1;fillColor=#E6E6E6;strokeColor=none;align=left;" parent="ykSrCoj4EnFe8CgVLgln-1" vertex="1">
          <mxGeometry x="130" y="120" width="110" height="20" as="geometry" />
        </mxCell>
        <mxCell id="VUUPn2tp5AWd68Dhoarm-1" value="位置" style="rounded=0;whiteSpace=wrap;html=1;fillColor=#E6E6E6;strokeColor=none;align=left;" parent="ykSrCoj4EnFe8CgVLgln-1" vertex="1">
          <mxGeometry x="130" y="150" width="140" height="10" as="geometry" />
        </mxCell>
        <mxCell id="7J4eACSGIs_moCKSkd6_-0" value="&lt;font style=&quot;font-size: 18px&quot;&gt;&lt;b&gt;&amp;nbsp; 动态&lt;/b&gt;&lt;/font&gt;" style="rounded=0;whiteSpace=wrap;html=1;fillColor=#ffffff;align=left;strokeColor=none;" parent="ykSrCoj4EnFe8CgVLgln-1" vertex="1">
          <mxGeometry x="40" y="420" width="320" height="60" as="geometry" />
        </mxCell>
        <mxCell id="7J4eACSGIs_moCKSkd6_-1" value="头像&amp;nbsp; 用户名&amp;nbsp; 时间" style="rounded=0;whiteSpace=wrap;html=1;fillColor=#E6E6E6;strokeColor=none;" parent="ykSrCoj4EnFe8CgVLgln-1" vertex="1">
          <mxGeometry x="60" y="480" width="120" height="20" as="geometry" />
        </mxCell>
        <mxCell id="7J4eACSGIs_moCKSkd6_-2" value="&amp;nbsp; &amp;nbsp;借了/看完/收到&amp;nbsp; &amp;nbsp; 书名" style="rounded=0;whiteSpace=wrap;html=1;fillColor=#E6E6E6;strokeColor=none;align=left;" parent="ykSrCoj4EnFe8CgVLgln-1" vertex="1">
          <mxGeometry x="60" y="510" width="280" height="10" as="geometry" />
        </mxCell>
        <mxCell id="NpjJHWqnDywhUA2aJ927-0" value="&lt;font style=&quot;font-size: 18px&quot;&gt;&lt;b&gt;&amp;nbsp; 书架&lt;/b&gt;&lt;/font&gt;" style="rounded=0;whiteSpace=wrap;html=1;fillColor=#ffffff;align=left;strokeColor=none;" parent="ykSrCoj4EnFe8CgVLgln-1" vertex="1">
          <mxGeometry x="40" y="250" width="320" height="60" as="geometry" />
        </mxCell>
        <mxCell id="NpjJHWqnDywhUA2aJ927-1" value="封面" style="rounded=0;whiteSpace=wrap;html=1;fillColor=#E6E6E6;strokeColor=none;" parent="ykSrCoj4EnFe8CgVLgln-1" vertex="1">
          <mxGeometry x="60" y="310" width="70" height="90" as="geometry" />
        </mxCell>
        <mxCell id="NpjJHWqnDywhUA2aJ927-2" value="" style="rounded=0;whiteSpace=wrap;html=1;fillColor=#E6E6E6;strokeColor=none;" parent="ykSrCoj4EnFe8CgVLgln-1" vertex="1">
          <mxGeometry x="165" y="310" width="70" height="90" as="geometry" />
        </mxCell>
        <mxCell id="NpjJHWqnDywhUA2aJ927-3" value="" style="rounded=0;whiteSpace=wrap;html=1;fillColor=#E6E6E6;strokeColor=none;" parent="ykSrCoj4EnFe8CgVLgln-1" vertex="1">
          <mxGeometry x="270" y="310" width="70" height="90" as="geometry" />
        </mxCell>
        <mxCell id="NpjJHWqnDywhUA2aJ927-4" value="书名" style="rounded=0;whiteSpace=wrap;html=1;fillColor=#E6E6E6;strokeColor=none;" parent="ykSrCoj4EnFe8CgVLgln-1" vertex="1">
          <mxGeometry x="60" y="410" width="70" height="10" as="geometry" />
        </mxCell>
        <mxCell id="NpjJHWqnDywhUA2aJ927-5" value="" style="rounded=0;whiteSpace=wrap;html=1;fillColor=#E6E6E6;strokeColor=none;" parent="ykSrCoj4EnFe8CgVLgln-1" vertex="1">
          <mxGeometry x="165" y="410" width="70" height="10" as="geometry" />
        </mxCell>
        <mxCell id="NpjJHWqnDywhUA2aJ927-6" value="" style="rounded=0;whiteSpace=wrap;html=1;fillColor=#E6E6E6;strokeColor=none;" parent="ykSrCoj4EnFe8CgVLgln-1" vertex="1">
          <mxGeometry x="270" y="410" width="70" height="10" as="geometry" />
        </mxCell>
        <mxCell id="BU2ned_K7J81whHCg7Ng-3" value="&lt;font&gt;&lt;span style=&quot;font-size: 18px&quot;&gt;12&amp;nbsp; &amp;nbsp; &amp;nbsp; &amp;nbsp; &amp;nbsp; &amp;nbsp; &amp;nbsp; &amp;nbsp;12&amp;nbsp; &amp;nbsp; &amp;nbsp; &amp;nbsp; &amp;nbsp; &amp;nbsp; &amp;nbsp; &amp;nbsp;12&lt;br&gt;&lt;/span&gt;&lt;font style=&quot;font-size: 12px&quot;&gt;动态&amp;nbsp; &amp;nbsp; &amp;nbsp; &amp;nbsp; &amp;nbsp; &amp;nbsp; &amp;nbsp; &amp;nbsp; &amp;nbsp; &amp;nbsp; &amp;nbsp; 借阅&amp;nbsp; &amp;nbsp; &amp;nbsp; &amp;nbsp; &amp;nbsp; &amp;nbsp; &amp;nbsp; &amp;nbsp; &amp;nbsp; &amp;nbsp; &amp;nbsp;捐赠&amp;nbsp;&lt;/font&gt;&lt;br&gt;&lt;/font&gt;" style="rounded=0;whiteSpace=wrap;html=1;fillColor=#ffffff;align=center;strokeColor=none;" vertex="1" parent="ykSrCoj4EnFe8CgVLgln-1">
          <mxGeometry x="40" y="190" width="320" height="60" as="geometry" />
        </mxCell>
        <mxCell id="SShMqrKOUvaHZoGRtX0P-0" value="修改" style="rounded=1;whiteSpace=wrap;html=1;" vertex="1" parent="ykSrCoj4EnFe8CgVLgln-1">
          <mxGeometry x="305.5" y="130" width="37.5" height="20" as="geometry" />
        </mxCell>
        <mxCell id="114EQr-ak1CgcNrsCqUB-0" value="&lt;span style=&quot;font-size: 14px&quot;&gt;邮件&lt;/span&gt;" style="rounded=0;whiteSpace=wrap;html=1;fillColor=#ffffff;strokeColor=none;" vertex="1" parent="ykSrCoj4EnFe8CgVLgln-1">
          <mxGeometry x="300" y="40" width="60" height="50" as="geometry" />
        </mxCell>
        <mxCell id="114EQr-ak1CgcNrsCqUB-1" value="&lt;span style=&quot;font-size: 14px&quot;&gt;设置&lt;/span&gt;" style="rounded=0;whiteSpace=wrap;html=1;fillColor=#ffffff;strokeColor=none;" vertex="1" parent="ykSrCoj4EnFe8CgVLgln-1">
          <mxGeometry x="40" y="40" width="60" height="50" as="geometry" />
        </mxCell>
        <mxCell id="114EQr-ak1CgcNrsCqUB-2" value="" style="endArrow=none;html=1;exitX=1;exitY=0;exitDx=0;exitDy=0;entryX=0;entryY=0;entryDx=0;entryDy=0;strokeColor=#B3B3B3;" edge="1" parent="ykSrCoj4EnFe8CgVLgln-1">
          <mxGeometry width="50" height="50" relative="1" as="geometry">
            <mxPoint x="360" y="250" as="sourcePoint" />
            <mxPoint x="40.00000000000023" y="250" as="targetPoint" />
          </mxGeometry>
        </mxCell>
        <mxCell id="WziUw9CxoFngwD-Fbh6a-0" value="" style="endArrow=none;html=1;exitX=1;exitY=0;exitDx=0;exitDy=0;entryX=0;entryY=0;entryDx=0;entryDy=0;strokeColor=#B3B3B3;" parent="ykSrCoj4EnFe8CgVLgln-1" edge="1">
          <mxGeometry width="50" height="50" relative="1" as="geometry">
            <mxPoint x="360" y="90" as="sourcePoint" />
            <mxPoint x="40.00000000000023" y="90" as="targetPoint" />
          </mxGeometry>
        </mxCell>
        <mxCell id="BU2ned_K7J81whHCg7Ng-1" value="" style="endArrow=none;html=1;exitX=1;exitY=0;exitDx=0;exitDy=0;entryX=0;entryY=0;entryDx=0;entryDy=0;strokeColor=#B3B3B3;" edge="1" parent="ykSrCoj4EnFe8CgVLgln-1">
          <mxGeometry width="50" height="50" relative="1" as="geometry">
            <mxPoint x="360" y="190" as="sourcePoint" />
            <mxPoint x="40.00000000000023" y="190" as="targetPoint" />
          </mxGeometry>
        </mxCell>
      </root>
    </mxGraphModel>
  </diagram>
</mxfile>
